<svg version="1.1" xmlns="http://www.w3.org/2000/svg" xmlns:xlink="http://www.w3.org/1999/xlink" width="169.93333" height="103.24353" viewBox="0,0,169.93333,103.24353"><g transform="translate(-233.54777,-79.90179)"><g data-paper-data="{&quot;isPaintingLayer&quot;:true}" fill="#000000" fill-rule="nonzero" stroke="none" stroke-width="0.5" stroke-linecap="butt" stroke-linejoin="miter" stroke-miterlimit="10" stroke-dasharray="" stroke-dashoffset="0" style="mix-blend-mode: normal"><path d="M258.76877,151.46646c-5,0 -5,-5 -5,-5v-1.5015c0.11489,-6.76924 2.42891,-13.02225 7.83606,-17.38022c1.11361,-0.89753 2.80576,-1.05574 3.70092,-2.17126c0.7919,-0.98685 0.41371,-2.53652 0.98346,-3.66629c0.98614,-1.95546 2.27344,-3.7567 3.62787,-5.47769c2.33754,-2.97018 7.07461,-8.13406 10.24706,-10.09232c2.6708,-1.64861 6.10918,-2.04712 8.46772,-4.11796c2.46754,-2.16655 10.28392,-10.79156 12.5533,-12.39856c1.50811,-1.06793 3.50908,-1.16871 5.21974,-1.86765c5.92649,-2.42143 11.17431,-6.7113 17.62902,-7.82355c0.51605,-0.08892 11.22426,-0.06456 11.31142,-0.06456c5.00501,0 10.01001,0 15.01502,0c1.40425,0 9.26174,-0.03552 10.15777,0.13376c1.0997,0.20774 1.92574,1.19816 3.003,1.5015c4.40469,1.24031 9.76108,-1.46228 14.27817,0.24685c2.10525,0.79656 3.00664,3.98811 5.24135,4.25766c1.4907,0.1798 3.03824,-0.32339 4.5045,0c2.18578,0.48208 3.82866,2.48418 6.00601,3.003c1.2243,0.29173 2.70205,-0.42286 3.76766,0.24685c2.2786,1.43204 4.37079,3.37403 5.70898,5.70898c0.81732,1.4261 0.25373,3.27761 0.3806,4.91642c0,0 0,5 -5,5c-5,0 -5,-5 -5,-5c0.8326,-2.38355 -0.19817,-0.63002 -2.15477,-1.13976c-2.16601,-0.5643 -3.80027,-2.62255 -6.00601,-3.003c-1.47965,-0.25522 -3.0475,0.36283 -4.5045,0c-1.71676,-0.42752 -3.3296,-1.29526 -4.77779,-2.31154c-0.85956,-0.6032 -1.03499,-2.00952 -1.99287,-2.43982c-0.79631,-0.35772 -1.72014,0.32135 -2.59109,0.3806c-2.89724,0.19712 -7.38644,0.49965 -10.15777,-0.13376c-1.09102,-0.24936 -1.90887,-1.26616 -3.003,-1.5015c-2.56187,-0.55105 -5.23978,0.13376 -7.86024,0.13376c-5.00501,0 -10.01001,0 -15.01502,0c-3.2366,0 -6.51264,-0.56959 -9.7096,-0.06456c-2.84554,0.44951 -11.93595,5.4715 -12.01362,5.51034c-2.29937,1.14969 -5.09605,1.31067 -7.17966,2.81649c-4.41229,3.18877 -7.30428,8.12156 -11.47072,11.62547c-1.67611,1.40958 -3.52841,2.62957 -5.47769,3.62787c-1.26508,0.64789 -2.84057,0.55447 -4.07261,1.26318c-0.896,0.51541 -1.37864,1.54118 -2.09612,2.28528c-1.85123,1.91991 -3.98539,3.5767 -5.67483,5.64042c-2.09122,2.5545 -2.33782,6.29418 -4.39768,8.87403c-1.36195,1.70577 -3.59855,2.47753 -5.30809,3.83475c-2.97249,2.35986 -4.28509,5.92428 -4.17595,9.6468v1.5015c0,0 0,5 -5,5z"/><path d="M292.2973,170.49048c0,5 -5,5 -5,5h-3.003c-1.73517,0 -3.50844,-0.42808 -5.20509,-0.06456c-1.5476,0.33158 -2.94299,1.24327 -4.5045,1.5015c-1.36717,0.22609 -2.79783,-0.34103 -4.15665,-0.06919c-1.09741,0.21954 -1.91475,1.24031 -3.003,1.5015c-3.69337,0.88644 -7.73173,0.04553 -11.32209,1.2849c-1.83202,0.6324 -3.26285,2.09254 -4.89427,3.13882c-2.77327,0.09994 -13.31851,1.28125 -15.49497,-1.24993c-5.26069,-6.11807 0.57648,-8.82604 1.67229,-13.69331c0.21986,-0.97656 -0.25844,-2.03594 0,-3.003c0.57788,-2.16242 2.68451,-3.79047 3.003,-6.00601c0.37287,-2.5938 -0.13376,-5.23978 -0.13376,-7.86024c0,-8.00801 0,-16.01602 0,-24.02402c0,0 0,-5 5,-5c5,0 5,5 5,5c0,8.00801 0,16.01602 0,24.02402c0,2.3204 0.01871,9.31294 -0.13376,10.15777c-0.39752,2.20272 -2.51138,3.82236 -3.003,6.00601c-0.21986,0.97656 0.25844,2.03594 0,3.003c-0.27235,1.01914 -0.76529,1.96074 -1.26739,2.89641c1.20839,0.07699 2.29284,0.16666 2.45973,0.17838c1.37158,-0.95573 2.52401,-2.35313 4.11473,-2.86719c3.36067,-1.08604 6.93538,-1.36141 10.4353,-1.83482c0.74972,-0.10141 1.53494,0.309 2.26664,0.11672c1.0824,-0.28444 1.90557,-1.28207 3.003,-1.5015c1.58622,-0.31717 3.25706,0.1986 4.85236,-0.06919c1.56088,-0.26202 2.94917,-1.20833 4.5045,-1.5015c0.43265,-0.08155 5.98684,-0.06456 6.80692,-0.06456h3.003c0,0 5,0 5,5z"/></g></g></svg>