<svg version="1.1" xmlns="http://www.w3.org/2000/svg" xmlns:xlink="http://www.w3.org/1999/xlink" width="198" height="198" viewBox="0,0,198,198"><g transform="translate(-141,-81)"><g data-paper-data="{&quot;isPaintingLayer&quot;:true}" fill-rule="nonzero" stroke="none" stroke-linecap="butt" stroke-linejoin="miter" stroke-miterlimit="10" stroke-dasharray="" stroke-dashoffset="0" style="mix-blend-mode: normal"><path d="M141,279v-198h198v198z" fill="#ffffff" stroke-width="0"/><path d="M214,236.66666c-3.9463,0 -4.77794,-3.11465 -4.9532,-4.42742c-2.00174,-3.00894 -4.51709,-6.61565 -6.58233,-9.03705c-0.61503,-0.72109 -1.6595,-0.92817 -2.41573,-1.49944c-1.9648,-1.48424 -3.98359,-2.9255 -5.73423,-4.65717c-0.82264,-0.81373 -1.04041,-2.13362 -1.90658,-2.90085c-2.11234,-1.87106 -4.80319,-3.01558 -6.90212,-4.90167c-3.2176,-2.89133 -4.43629,-6.94268 -9.50581,-6.5764c-5.25066,0 -12.90154,1.63061 -14.81857,-5.66533c-0.67217,-2.55818 0.53624,-5.32253 1.46758,-7.79816c0.43119,-1.14616 1.72336,-1.74697 2.48429,-2.70645c0.84798,-1.06926 1.3693,-2.3975 2.33118,-3.36559c0.8471,-0.85257 2.14703,-1.15331 3,-2c2.92574,-2.90418 4.96925,-6.8767 8.45847,-9.40549c1.57379,-1.1406 3.40946,-1.88287 5,-3c3.02984,-2.12804 6.91771,-6.6171 9.21035,-9.22892c1.97156,-2.24603 3.13625,-5.1529 5.24177,-7.27386c1.9704,-1.98485 4.28268,-3.5982 6.42402,-5.3973c0,0 3.84111,-3.20092 7.04203,0.64018c3.20092,3.84111 -0.64018,7.04203 -0.64018,7.04203c-1.85866,1.53423 -3.86418,2.90617 -5.57598,4.6027c-2.59031,2.56719 -2.42651,4.05406 -4.75823,6.72614c-1.65771,1.89968 -3.55205,3.57912 -5.33118,5.36559c-1.80695,1.81441 -3.38506,3.9028 -5.45847,5.40549c-2.15755,1.56368 -4.67141,2.69641 -6.54153,4.59451c-2.14844,2.18058 -3.90479,4.89126 -6,7c-0.8471,0.85257 -2.14703,1.15331 -3,2c-0.71087,0.70563 -1.2207,1.60869 -1.80305,2.43394c1.08807,-0.02497 2.17866,0.03053 3.26751,0.03053c5.00721,0.16143 9.69938,1.75751 13.43608,5.36773c1.2177,1.17648 1.80042,2.92224 3.05812,4.05587c2.16379,1.95035 4.92387,3.15938 7.09788,5.09833c0.93037,0.82978 1.21763,2.21195 2.09342,3.09915c2.29165,2.32148 5.67758,3.41001 7.85004,5.84339c2.72309,3.05015 6.19235,8.16001 8.62472,11.76203l0.83975,3.7735c0,0 0,5 -5,5z" fill="#000000" stroke-width="0.5"/><path d="M234.99721,245.76275c-0.0311,0.69331 -0.40886,4.90391 -4.99721,4.90391c-5,0 -5,-5 -5,-5l1.46447,-5.53553c1.74123,-1.7249 3.98998,-3.4685 5.11042,-5.79221c3.34336,-6.93386 4.22649,-14.2127 6.73749,-21.41187c1.60648,-4.60585 4.12461,-8.84158 6.11942,-13.29303c1.09108,-2.43476 1.89544,-5.00594 3.17179,-7.34889c3.38025,-6.205 8.43978,-10.21414 12.11288,-16.19751c2.04425,-3.33003 2.97478,-7.24161 4.82467,-10.68341c2.25997,-4.20475 5.06138,-8.15526 6.81647,-12.59452c0,0 1.85695,-4.64238 6.49934,-2.78543c4.64238,1.85695 2.78543,6.49934 2.78543,6.49934c-1.8988,4.70061 -4.77651,8.94371 -7.18353,13.40548c-1.96941,3.6506 -2.9982,7.78593 -5.17533,11.31659c-3.53216,5.72811 -8.75509,9.90358 -11.88712,15.80249c-3.19916,6.02533 -6.46557,12.92845 -8.70878,19.35809c-2.64555,7.58283 -3.53651,15.3221 -7.26251,22.58813c-1.60934,3.13835 -3.17963,4.58987 -5.4279,6.76835z" fill="#000000" stroke-width="0.5"/><path d="M277.0971,232.64724c-0.98058,-4.9029 3.92232,-5.88348 3.92232,-5.88348l3.62129,-0.50547c2.0651,-2.40866 4.56232,-4.444 6.58202,-6.86764c1.14226,-1.37071 1.97336,-3.00461 3.24174,-4.25953c4.57096,-4.52245 10.21777,-6.41302 13.90327,-11.90054c5.76773,-4.43751 12.17955,-9.13291 17.01287,-14.47734c0.46536,-0.51457 -0.60552,-1.24932 -0.87218,-1.88983c-0.18833,-0.45236 -0.24072,-1.05855 -0.6588,-1.31409c-1.72064,-1.05169 -6.62352,-1.6701 -8.13296,-2.05017c-2.64198,-0.66524 -5.4142,-0.62128 -8.12906,-0.84953c-3.74035,-0.31447 -7.35774,-1.52585 -11.08029,-2.0073c-3.6455,-0.47148 -7.85335,0.02433 -11.50731,0.02433c0,0 -5,0 -5,-5c0,-5 5,-5 5,-5c4.01357,0 8.49223,-0.4619 12.49269,0.02433c4.84236,0.58857 6.02671,1.58865 10.91971,1.9927c5.373,0.44369 9.8078,0.45797 15.01233,2.19025c2.31773,0.77143 4.77572,1.43873 6.72564,2.91005c3.82627,2.88712 6.11175,10.28499 4.46902,14.79609c-0.36936,1.01429 -3.93997,4.47822 -5.08386,5.62212c-4.42159,4.42159 -8.8297,8.23054 -13.90327,11.90054c-3.71432,5.61477 -9.6027,7.54385 -14.09673,12.09946c-1.08795,1.10285 -1.76651,2.55037 -2.75826,3.74047c-2.74928,3.29913 -6.28917,6.23087 -9.41798,9.13236l-6.37871,1.49453c0,0 -4.9029,0.98058 -5.88348,-3.92232z" fill="#000000" stroke-width="0.5"/></g></g></svg>