<svg version="1.1" xmlns="http://www.w3.org/2000/svg" xmlns:xlink="http://www.w3.org/1999/xlink" width="198" height="198" viewBox="0,0,198,198"><g transform="translate(-141,-81)"><g data-paper-data="{&quot;isPaintingLayer&quot;:true}" fill-rule="nonzero" stroke="none" stroke-linecap="butt" stroke-linejoin="miter" stroke-miterlimit="10" stroke-dasharray="" stroke-dashoffset="0" style="mix-blend-mode: normal"><path d="M141,279v-198h198v198z" fill="#ffffff" stroke-width="0"/><path d="M243.53553,227.20219c-3.53553,3.53553 -7.07107,0 -7.07107,0l-1,-1c-1.7699,-1.83073 -4.1355,-2.97408 -6.25441,-4.38629c-3.1286,-2.08515 -5.69002,-4.97069 -8.89726,-6.93273c-2.59413,-1.58697 -5.71356,-2.27492 -8.15799,-4.08399c-2.9571,-2.18847 -5.35019,-5.05894 -7.84692,-7.76083c-1.54108,-1.66771 -2.47734,-3.90324 -4.24667,-5.3265c-1.21513,-0.97746 -2.92598,-1.08005 -4.38896,-1.62008c-1.95634,-1.31118 -3.76668,-2.8721 -5.86901,-3.93354c-5.05641,-2.55291 -15.37782,-2.22074 -18.21162,-8.13229c-2.37358,-4.95149 -0.22702,-9.99147 3.3734,-13.33282c1.00847,-0.9359 2.60433,-0.90938 3.83821,-1.51804c1.66354,-0.82061 2.72448,-2.54374 4.27321,-3.56463c1.52545,-1.00555 3.21245,-1.74792 4.87527,-2.50499c2.08508,-0.94932 4.92495,-0.91524 6.29989,-2.74781c0.99389,-1.32469 1.10635,-3.29159 2.36284,-4.3704c1.5581,-1.33777 3.97487,-1.28335 5.63309,-2.49479c2.17778,-1.59101 3.58489,-4.06276 5.67539,-5.76682c0.26434,-0.21547 9.90976,-5.98955 10.50458,-6.34644c0,0 4.28746,-2.57248 6.85994,1.71499c2.57248,4.28746 -1.71499,6.85994 -1.71499,6.85994c-3.15873,1.89524 -6.64879,3.31556 -9.49542,5.65356c-2.28737,1.87867 -3.9268,4.49767 -6.32461,6.23318c-1.24726,0.90275 -3.19679,0.50449 -4.36691,1.50521c-1.00868,0.86264 -0.75035,2.6421 -1.63716,3.6296c-1.20457,1.34136 -2.83528,2.25769 -4.42065,3.1161c-1.09893,0.59502 -6.76067,2.51747 -8.40419,3.6311c-0.69554,0.47129 -1.08936,1.29604 -1.75361,1.8105c-1.25495,0.97195 -2.5571,1.90774 -3.97319,2.62487c-0.65865,0.33355 -1.4756,0.20952 -2.16179,0.48196c-0.28356,0.11258 -0.93045,0.6947 -0.6266,0.66718c2.38812,-0.21628 4.88337,0.84275 7.17277,1.61587c4.49294,1.51725 8.79465,3.69712 12.7466,6.31831c1.87035,0.79331 4.022,1.11402 5.61104,2.37992c4.63161,3.68977 7.25573,9.57701 12.04855,13.0548c2.31344,1.67869 5.26487,2.27696 7.69987,3.77388c3.27247,2.01176 5.90679,4.93604 9.10274,7.06727c2.6529,1.76909 5.46644,3.38368 7.74559,5.61371l1,1c0,0 3.53553,3.53553 0,7.07107z" fill="#000000" stroke-width="0.5"/><path d="M261,217.66666c-5,0 -5,-5 -5,-5l0.03746,-3.61092c0.59905,-2.39618 0.46233,-4.9363 1.05276,-7.33462c0.46805,-1.90123 1.55883,-3.60247 2.11707,-5.4792c0.48459,-1.62913 0.50816,-3.37304 1,-5c4.14725,-13.71878 11.98978,-26.10177 18.32058,-38.81133c0,0 2.23607,-4.47214 6.7082,-2.23607c4.47214,2.23607 2.23607,6.7082 2.23607,6.7082c-6.09248,12.14314 -13.77156,24.05173 -17.67942,37.18867c-0.48462,1.62912 -0.50742,3.37327 -1,5c-0.47309,1.56236 -1.48005,2.93888 -1.88293,4.5208c-0.55385,2.1747 -0.40297,4.48827 -0.94724,6.66538l0.03746,2.38908c0,0 0,5 -5,5z" fill="#000000" stroke-width="0.5"/><path d="M276,213.66666c0,-3.44625 2.37533,-4.51717 3.8516,-4.84996c3.63377,-3.27468 7.7195,-5.78967 11.22485,-9.20625c1.92493,-0.93668 3.72246,-2.20122 5.77479,-2.81003c0.59572,-0.17672 7.47317,-0.13376 8.14876,-0.13376c3.66667,0 7.33334,-0.00823 11,0c0.28094,0.00063 1.04672,-0.05695 1.95276,-0.0723c-0.56164,-0.80895 -0.88726,-1.7977 -1.58503,-2.49162c-1.18175,-1.17526 -2.82448,-1.8185 -4,-3c-0.93038,-0.93511 -1.40123,-2.24349 -2.23444,-3.26613c-1.43794,-1.76487 -3.5306,-2.87487 -5.30323,-4.30323c-0.60141,-0.48461 -0.9083,-1.31569 -1.58251,-1.69251c-2.60982,-1.45863 -5.52264,-2.37178 -8.02105,-4.01395c0,0 -4.16025,-2.7735 -1.38675,-6.93375c2.7735,-4.16025 6.93375,-1.38675 6.93375,-1.38675c2.45929,1.67064 5.40857,2.49197 7.97895,3.98605c0.96311,0.55982 1.54553,1.61419 2.41749,2.30749c2.29394,1.82393 4.79947,3.46313 6.69677,5.69677c0.7023,0.82679 0.99637,1.96891 1.76556,2.73387c1.18175,1.17526 2.82448,1.8185 4,3c0.93038,0.93511 1.41261,2.23432 2.23444,3.26613c2.7898,3.50259 9.5814,7.38835 3.94839,13.40182c-2.23253,2.38331 -6.20071,2.10951 -9.4027,2.75109c-4.40607,0.88284 -11.07477,0.01704 -15.4124,0.01704c-3.5372,0 -5.09846,-0.53631 -8.07645,1.05621c-3.46301,3.57536 -7.82929,5.92059 -11.38802,9.47932l-4.53553,1.46447c0,0 -5,0 -5,-5z" fill="#000000" stroke-width="0.5"/></g></g></svg>