<svg version="1.1" xmlns="http://www.w3.org/2000/svg" xmlns:xlink="http://www.w3.org/1999/xlink" width="198" height="198" viewBox="0,0,198,198"><g transform="translate(-141,-81)"><g data-paper-data="{&quot;isPaintingLayer&quot;:true}" fill-rule="nonzero" stroke="none" stroke-linecap="butt" stroke-linejoin="miter" stroke-miterlimit="10" stroke-dasharray="" stroke-dashoffset="0" style="mix-blend-mode: normal"><path d="M141,279v-198h198v198z" fill="#ffffff" stroke-width="0"/><path d="M212,179.66666c0,5 -5,5 -5,5l-4.14876,-0.13376c-3.54673,-1.67251 -7.37033,-2.70186 -10.94052,-4.32368c-4.60636,-2.09252 -8.71543,-5.06121 -13.5334,-6.8132c-2.6194,-0.95251 -5.56787,-1.31042 -7.82624,-2.94391c-2.917,0.18601 -3.20029,0.49122 -6.4645,-1.16606c-2.22656,-1.13045 -4.94437,-1.91995 -6.33984,-3.99074c-1.93358,-2.86933 -0.52673,-9.09114 1.27972,-11.66362c0.84068,-1.19717 2.50778,-1.5582 3.53746,-2.5973c1.17313,-1.18387 1.8185,-2.82448 3,-4c0.93511,-0.93038 2.25744,-1.38439 3.26613,-2.23444c1.65698,-1.39639 2.85428,-3.35959 4.70645,-4.48429c2.92158,-1.77408 6.7902,-1.3488 9.83484,-2.90225c1.06936,-0.54562 1.59963,-1.92269 2.71524,-2.36614c1.23237,-0.48987 2.68037,0.02748 3.96788,-0.29038c0.43195,-0.10664 6.33052,-2.67537 7.02199,-3.14643c0.87522,-0.59623 1.38727,-1.65141 2.2949,-2.19704c1.01944,-0.61285 2.33897,-0.59174 3.35977,-1.20232c2.2482,-1.34474 4.2418,-3.0754 6.3627,-4.61309c0,0 4.06867,-2.90619 6.97486,1.16248c2.90619,4.06867 -1.16248,6.97486 -1.16248,6.97486c-2.54577,1.79564 -4.96801,3.78064 -7.6373,5.38691c-0.78774,0.47403 -1.85136,0.32555 -2.64023,0.79768c-0.70977,0.42479 -1.01304,1.34989 -1.7051,1.80296c-1.52862,1.00073 -3.20425,1.7662 -4.87527,2.50499c-1.99354,0.88138 -3.98964,1.81395 -6.10274,2.34858c-0.66335,0.16783 -1.39791,-0.54726 -2.03212,-0.29038c-0.64215,0.2601 -0.66286,1.32849 -1.28476,1.63386c-2.29384,1.1263 -4.78627,1.80242 -7.23072,2.54735c-0.95198,0.29011 -2.10112,0.00634 -2.93444,0.5504c-3.52484,2.30128 -6.11913,6.40484 -9.02742,9.28127c-0.67165,0.6643 -1.74886,0.78377 -2.46254,1.4027c-0.05899,0.05116 -0.06389,0.13244 -0.04883,0.22376c1.79559,-0.05935 5.68188,0.92119 6.52422,0.95582c1.15483,0.72202 2.18878,1.68909 3.4645,2.16606c1.49637,0.55948 3.2079,0.34408 4.70926,0.89003c5.15063,1.87296 9.55024,4.95068 14.4666,7.1868c2.96656,1.34929 6.19412,2.12365 9.05948,3.67632l1.85124,-0.13376c0,0 5,0 5,5z" fill="#000000" stroke-width="0.5"/><path d="M235.76393,188.1388c-4.47214,-2.23607 -2.23607,-6.7082 -2.23607,-6.7082l0.62142,-0.97661c0.4999,-1.75027 0.68479,-3.62316 1.49971,-5.25082c0.54824,-1.09501 1.72563,-1.74517 2.48429,-2.70645c1.91816,-2.43046 4.12127,-5.23257 5.8105,-7.75361c1.6596,-2.47682 2.28289,-5.5627 4,-8c0.8145,-1.15611 2.21581,-1.82312 3,-3c1.18926,-1.78479 1.69427,-3.96105 2.84453,-5.77122c1.14472,-1.80144 2.84615,-3.2044 4,-5c1.3454,-2.09369 1.96968,-4.62357 3.46329,-6.61425c0.7213,-0.96134 2.19761,-1.10523 3,-2c0.57442,-0.64056 1.75061,-4.49747 2.00497,-5.27213c0,0 1.58114,-4.74342 6.32456,-3.16228c4.74342,1.58114 3.16228,6.32456 3.16228,6.32456c-1.05961,3.14134 -1.81697,5.98422 -3.99503,8.72787c-0.74726,0.9413 -2.27911,1.03836 -3,2c-1.19029,1.5878 -1.47967,3.70629 -2.53671,5.38575c-1.13692,1.80637 -2.85298,3.20003 -4,5c-1.2508,1.96283 -1.86398,4.29248 -3.15547,6.22878c-0.78472,1.17652 -2.16901,1.85568 -3,3c-1.75188,2.41243 -2.35046,5.51647 -4,8c-2.70894,4.07855 -7.32057,7.42627 -8.2055,12.28913l-1.37858,3.02339c0,0 -2.23607,4.47214 -6.7082,2.23607z" fill="#000000" stroke-width="0.5"/><path d="M267,184.66666c0,-5 5,-5 5,-5h1c3.02783,0.21877 5.47553,-1.73195 8.53651,-2.351c5.0882,-5.0882 12.04798,-2.18998 17.83484,-5.90225c2.87244,-1.84268 5.19653,-4.11329 7.747,-6.21265c-0.96882,-0.21908 -1.92455,-0.49898 -2.85307,-0.84468c-2.21975,-0.82642 -5.79321,-3.19758 -8.21081,-3.77964c-0.92539,-0.2228 -1.92708,0.23601 -2.85537,0.02566c-5.10228,-1.15618 -9.83786,-3.54849 -14.78023,-5.19202c0,0 -4.74342,-1.58114 -3.16228,-6.32456c1.58114,-4.74342 6.32456,-3.16228 6.32456,-3.16228c4.38585,1.46513 8.70067,3.82725 13.21977,4.80798c1.0244,0.22231 2.12931,-0.23502 3.14463,0.02566c3.44177,0.88366 6.46569,2.96299 9.78919,4.22036c2.47394,0.93596 8.08946,1.2031 9.66252,3.02081c1.78822,2.06634 2.85052,5.11147 2.469,7.81738c-0.32166,2.28135 -2.80594,3.6596 -4.33071,5.38677c-3.96579,4.49223 -10.18971,9.07626 -15.8008,11.15389c-4.92933,1.82519 -9.51941,-0.09026 -13.27124,3.66157c-4.82052,1.3644 -8.44609,3.48724 -13.46349,3.649h-1c0,0 -5,0 -5,-5z" fill="#000000" stroke-width="0.5"/></g></g></svg>