<svg version="1.1" xmlns="http://www.w3.org/2000/svg" xmlns:xlink="http://www.w3.org/1999/xlink" width="198" height="198" viewBox="0,0,198,198"><g transform="translate(-141,-81)"><g data-paper-data="{&quot;isPaintingLayer&quot;:true}" fill-rule="nonzero" stroke="none" stroke-linecap="butt" stroke-linejoin="miter" stroke-miterlimit="10" stroke-dasharray="" stroke-dashoffset="0" style="mix-blend-mode: normal"><path d="M141,279v-198h198v198z" fill="#ffffff" stroke-width="0"/><path d="M224,222.66666c-3.95377,0 -4.78108,-3.12646 -4.95419,-4.43486c-0.78915,-0.5768 -1.57229,-1.16118 -2.32182,-1.78787c-1.64195,-1.37286 -2.6563,-3.4771 -4.47645,-4.60306c-1.74645,-1.08038 -4.07065,-1.16209 -5.63309,-2.49479c-1.18395,-1.00987 -1.06867,-3.02481 -2.14999,-4.14388c-0.77557,-0.80264 -2.13943,-0.70244 -3.09312,-1.28228c-1.2703,-0.77233 -2.18946,-2.07577 -3.5202,-2.73857c-1.33337,-0.66411 -3.04979,-0.37687 -4.31464,-1.16369c-1.75249,-1.09017 -2.76784,-3.11321 -4.46006,-4.29479c-2.99351,-2.09019 -6.4972,-3.40892 -9.39698,-5.62731c-2.64359,-0.80325 -5.55427,-0.81176 -8.03876,-2.02052c-4.9199,-2.39366 -7.94568,-9.14335 -6.26011,-14.32179c0.4908,-1.50783 2.02032,-2.44597 3.08386,-3.62212c2.09472,-2.3165 5.42267,-6.18194 7.90688,-7.71772c1.44951,-0.89611 3.16,-1.33186 4.82774,-1.68218c0.70359,-0.1478 1.50552,0.54416 2.14588,0.2173c3.05596,-1.55988 4.76768,-4.94857 6.78832,-7.4518c3.62295,-4.48822 8.93282,-6.73978 11.39457,-12.06612c0,0 2.23607,-4.47214 6.7082,-2.23607c4.47214,2.23607 2.23607,6.7082 2.23607,6.7082c-0.85086,1.62276 -1.34964,3.48616 -2.55257,4.86829c-1.88377,2.16437 -4.4006,3.68453 -6.54787,5.58776c-5.29373,4.6921 -7.91699,10.66302 -14.71666,14.02603c-1.5103,0.74697 -3.70827,-0.51445 -5.02638,0.53511c-1.59997,1.27399 -4.25552,5.97008 -6.55513,6.59228c0.44239,0.59643 0.5945,1.53677 1.28577,1.7461c2.61718,0.79254 5.37835,1.08149 7.96124,1.97948c3.31926,2.44672 7.22773,4.00385 10.60302,6.37269c1.39817,0.98126 2.09376,2.7962 3.53994,3.70521c1.0665,0.67036 2.5595,0.27129 3.68536,0.83631c1.65086,0.82849 2.92192,2.26909 4.4798,3.26143c1.57699,1.00451 3.56674,1.41389 4.90688,2.71772c1.02183,0.99415 0.77038,2.92507 1.85001,3.85612c1.16599,1.00552 3.06487,0.68343 4.36691,1.50521c3.02576,1.90971 6.28384,5.96394 9.24754,8.17421l2,6c0,0 0,5 -5,5z" fill="#000000" stroke-width="0.5"/><path d="M286,223.66666c-5,0 -5,-5 -5,-5l0.3806,-1.08658c-4.38806,-3.40427 -6.53006,-8.61876 -9.562,-13.1719c-2.78156,-4.17714 -6.33099,-7.81598 -9.03028,-12.04675c-1.21664,-1.90692 -1.88102,-4.12455 -3.04158,-6.06611c-3.57227,-5.97623 -8.5758,-11.25426 -12.61151,-16.91654c-1.9019,-2.66846 -3.44722,-5.58791 -5.44912,-8.1822c-5.44126,-7.05143 -11.92692,-13.70524 -18.22166,-19.99438c0,0 -3.53553,-3.53553 0,-7.07107c3.53553,-3.53553 7.07107,0 7.07107,0c6.59196,6.59756 13.3579,13.56649 19.06562,20.9538c2.07253,2.68241 3.68359,5.69433 5.65185,8.45417c4.17914,5.85988 9.28138,11.32283 13.00025,17.49891c1.1401,1.89341 1.7742,4.06776 2.95842,5.93389c2.66913,4.20605 6.20442,7.80979 8.96972,11.95325c3.49721,5.24012 6.25229,10.08041 10.438,14.8281l0.3806,4.91342c0,0 0,5 -5,5z" fill="#000000" stroke-width="0.5"/><path d="M297,187.66666c0,-5 5,-5 5,-5h2c0.21357,0.19721 0.4356,0.79762 0.64071,0.59163c0.67897,-0.6819 0.57758,-1.95823 1.32432,-2.56516c0.94125,-0.76501 2.36909,-0.65095 3.40631,-1.27972c0.85933,-0.52093 1.26383,-1.65341 2.16516,-2.09775c1.09368,-0.53916 2.38883,-0.49072 3.58325,-0.73608c1.62471,-3.80554 4.40181,-6.62445 6.82403,-9.83647c0.17878,-0.23707 0.28881,-0.5317 0.38841,-0.8322c-0.61691,-0.44112 -1.06251,-1.20521 -1.78112,-1.45879c-0.64521,-0.22768 -1.36416,0.26931 -2.04377,0.19021c-3.87773,-0.45132 -7.6984,-1.30964 -11.52546,-2.08043c-2.82437,-0.56884 -5.72931,-0.61454 -8.59277,-0.9327c-1.36596,-0.15177 -2.63407,-0.84798 -4,-1c-1.6838,-0.1874 -3.41138,0.26727 -5.08259,-0.01087c-2.39378,-0.39839 -4.6216,-1.51822 -7,-2c-3.00081,-0.60786 -6.10708,-0.52428 -9.12849,-1.0197c0,0 -4.93197,-0.82199 -4.10997,-5.75396c0.82199,-4.93197 5.75396,-4.10997 5.75396,-4.10997c2.93321,0.49793 5.95276,0.40363 8.87151,0.9803c2.38068,0.47036 4.60641,1.60049 7,2c1.61677,0.26986 3.28826,-0.19157 4.91741,-0.01087c1.36599,0.15152 2.63404,0.84823 4,1c1.65647,0.18405 3.34396,-0.18789 5,0c4.96047,0.56279 9.90658,2.32762 14.88177,2.98687c1.30883,0.17343 2.69967,-0.21496 3.95623,0.19021c1.39403,0.44949 2.47253,1.57351 3.74784,2.29388c1.5952,0.90106 3.9307,0.98879 4.85945,2.56802c1.20288,2.04536 1.17504,4.72771 0.81003,7.07232c-0.82995,5.33125 -2.50649,4.91767 -4.99953,8.02118c-2.49769,3.10929 -4.56443,6.73188 -6.98647,9.91713c-1.47225,0.42131 -3.05062,0.57203 -4.41675,1.26392c-0.78594,0.39804 -1.0768,1.45335 -1.83484,1.90225c-0.77206,0.45721 -1.88911,0.16469 -2.59369,0.72028c-1.13964,0.89866 -1.37815,2.78462 -2.67568,3.43484c-1.60682,0.80521 -3.57286,0.39442 -5.35929,0.59163h-2c0,0 -5,0 -5,-5z" fill="#000000" stroke-width="0.5"/></g></g></svg>