<svg version="1.1" xmlns="http://www.w3.org/2000/svg" xmlns:xlink="http://www.w3.org/1999/xlink" width="100" height="100" viewBox="0,0,100,100"><g transform="translate(-190,-130)"><g data-paper-data="{&quot;isPaintingLayer&quot;:true}" fill-rule="nonzero" stroke-linecap="butt" stroke-linejoin="miter" stroke-miterlimit="10" stroke-dasharray="" stroke-dashoffset="0" style="mix-blend-mode: normal"><path d="M190,230v-100h100v100z" fill="#ffffff" stroke="none" stroke-width="0"/><path d="M205,164.66666c0,-2.76142 2.23858,-5 5,-5c2.76142,0 5,2.23858 5,5c0,2.76142 -2.23858,5 -5,5c-2.76142,0 -5,-2.23858 -5,-5z" fill="#000000" stroke="none" stroke-width="0.5"/><path d="M254,156.66666c0,-2.76142 2.23858,-5 5,-5c2.76142,0 5,2.23858 5,5c0,2.76142 -2.23858,5 -5,5c-2.76142,0 -5,-2.23858 -5,-5z" fill="#000000" stroke="none" stroke-width="0.5"/><path d="M210.14067,198.08774c-0.6099,-4.15167 9.13015,-8.37736 21.75501,-9.43834c12.62486,-1.06098 23.35374,1.44451 23.96364,5.59618c0.6099,4.15167 -9.13015,8.37736 -21.75501,9.43834c-12.62486,1.06098 -23.35374,-1.44451 -23.96364,-5.59618z" fill="none" stroke="#000000" stroke-width="5"/></g></g></svg>